<?xml version="1.0" standalone="no"?><svg xmlns="http://www.w3.org/2000/svg" viewBox="0 0 1440 320"><path fill="#0099ff" fill-opacity="1" d="M0,0L0,96L84.7,96L84.7,128L169.4,128L169.4,64L254.1,64L254.1,32L338.8,32L338.8,64L423.5,64L423.5,64L508.2,64L508.2,160L592.9,160L592.9,288L677.6,288L677.6,128L762.4,128L762.4,256L847.1,256L847.1,224L931.8,224L931.8,288L1016.5,288L1016.5,160L1101.2,160L1101.2,96L1185.9,96L1185.9,160L1270.6,160L1270.6,64L1355.3,64L1355.3,0L1440,0L1440,320L1355.3,320L1355.3,320L1270.6,320L1270.6,320L1185.9,320L1185.9,320L1101.2,320L1101.2,320L1016.5,320L1016.5,320L931.8,320L931.8,320L847.1,320L847.1,320L762.4,320L762.4,320L677.6,320L677.6,320L592.9,320L592.9,320L508.2,320L508.2,320L423.5,320L423.5,320L338.8,320L338.8,320L254.1,320L254.1,320L169.4,320L169.4,320L84.7,320L84.7,320L0,320L0,320Z"></path></svg>